<svg width="276" height="38" viewBox="0 0 276 38" fill="none" xmlns="http://www.w3.org/2000/svg">
<g clip-path="url(#clip0_692_273)">
<path d="M1.71 37V0.164997H9.925L16.974 14.899C18.829 18.821 20.26 22.69 21.002 25.34C20.737 22.478 20.472 17.761 20.419 15.217L20.26 0.164997H27.309V37H19.571L13.264 22.902C11.25 18.291 8.971 13.097 8.282 10.818C8.547 13.839 8.6 18.185 8.653 21.259L8.865 37H1.71ZM33.6052 18.185L30.5842 13.097C32.3332 11.984 33.0752 11.613 34.9832 10.871C37.6332 9.758 39.9122 9.281 42.4032 9.281C46.9612 9.281 50.0882 10.977 51.1482 13.998C51.5192 15.111 51.6252 15.959 51.6252 18.874L51.4662 27.99C51.4662 28.149 51.4662 28.308 51.4662 28.467C51.4662 31.382 51.9432 32.495 54.0102 34.032L50.2472 38.378C48.6042 37.689 47.1202 36.47 46.4312 35.092C45.4242 36.046 45.3182 36.152 44.7882 36.523C43.4632 37.477 41.5552 38.007 39.3292 38.007C33.2872 38.007 30.0012 34.933 30.0012 29.527C30.0012 23.167 34.4002 20.199 43.0392 20.199C43.5692 20.199 43.8872 20.199 44.6292 20.252V19.139C44.6292 16.118 44.0462 15.111 41.4492 15.111C39.1702 15.111 36.5202 16.224 33.6052 18.185ZM44.4172 30.958L44.5232 25.128H44.2052C39.2762 25.128 37.5802 26.029 37.5802 29.262C37.5802 31.382 38.9052 32.813 40.7072 32.813C42.0322 32.813 43.3572 32.124 44.4172 30.958ZM57.3505 18.874C57.3505 15.217 56.9265 12.461 56.3435 10.924L62.7035 9.228C63.3395 10.341 63.7105 11.56 63.8165 13.097C64.8235 11.719 66.5195 10.288 67.8445 9.652C68.4275 9.387 69.3815 9.228 70.1765 9.228C71.2365 9.228 71.7135 9.334 72.8265 9.811L70.8655 16.065C70.1765 15.694 69.5935 15.535 68.7985 15.535C67.2085 15.535 65.7775 16.277 64.4525 17.814V37H57.3505V18.874ZM75.8417 18.185L72.8207 13.097C74.5697 11.984 75.3117 11.613 77.2197 10.871C79.8697 9.758 82.1487 9.281 84.6397 9.281C89.1977 9.281 92.3247 10.977 93.3847 13.998C93.7557 15.111 93.8617 15.959 93.8617 18.874L93.7027 27.99C93.7027 28.149 93.7027 28.308 93.7027 28.467C93.7027 31.382 94.1797 32.495 96.2467 34.032L92.4837 38.378C90.8407 37.689 89.3567 36.47 88.6677 35.092C87.6607 36.046 87.5547 36.152 87.0247 36.523C85.6997 37.477 83.7917 38.007 81.5657 38.007C75.5237 38.007 72.2377 34.933 72.2377 29.527C72.2377 23.167 76.6367 20.199 85.2757 20.199C85.8057 20.199 86.1237 20.199 86.8657 20.252V19.139C86.8657 16.118 86.2827 15.111 83.6857 15.111C81.4067 15.111 78.7567 16.224 75.8417 18.185ZM86.6537 30.958L86.7597 25.128H86.4417C81.5127 25.128 79.8167 26.029 79.8167 29.262C79.8167 31.382 81.1417 32.813 82.9437 32.813C84.2687 32.813 85.5937 32.124 86.6537 30.958ZM134.302 27.036C134.302 29.0147 133.737 30.8697 132.606 32.601C131.476 34.297 129.992 35.4807 128.154 36.152C126.564 36.7173 123.808 37 119.886 37H110.505V0.641997H115.752C121.406 0.641997 125.01 0.906998 126.564 1.437C128.402 2.073 129.886 3.15066 131.016 4.67C132.182 6.154 132.765 7.85 132.765 9.758C132.765 13.68 130.592 16.33 126.246 17.708C128.472 18.2733 130.08 18.9447 131.069 19.722C133.225 21.418 134.302 23.856 134.302 27.036ZM127.942 10.341C127.942 7.01967 126.37 5.07633 123.225 4.511C122.413 4.36966 121.282 4.299 119.833 4.299H114.692V16.277H120.999C122.766 16.277 124.038 16.118 124.815 15.8C125.946 15.376 126.794 14.4927 127.359 13.15C127.748 12.2667 127.942 11.3303 127.942 10.341ZM129.744 26.665C129.744 25.1457 129.356 23.7853 128.578 22.584C127.801 21.3473 126.723 20.57 125.345 20.252C124.215 20.0047 122.801 19.881 121.105 19.881H114.692V33.449H121.953C123.932 33.449 125.398 33.2547 126.352 32.866C127.589 32.336 128.525 31.276 129.161 29.686C129.55 28.6967 129.744 27.6897 129.744 26.665ZM152.314 10.076L150.618 14.581C150.159 14.4397 149.77 14.369 149.452 14.369C148.392 14.369 147.332 14.687 146.272 15.323C145.247 15.9237 144.488 16.6833 143.993 17.602C143.675 18.2027 143.516 19.1567 143.516 20.464V37H139.382V16.86C139.382 14.422 139.064 12.4787 138.428 11.03L142.562 9.917C143.163 11.2243 143.463 12.5317 143.463 13.839V14.21C145.548 11.2773 148.021 9.811 150.883 9.811C151.307 9.811 151.784 9.89933 152.314 10.076ZM175.596 24.439C175.596 29.315 174.218 32.9543 171.462 35.357C169.519 37.053 167.116 37.901 164.254 37.901C160.438 37.901 157.523 36.47 155.509 33.608C153.743 31.0993 152.859 27.8487 152.859 23.856C152.859 19.934 153.725 16.7363 155.456 14.263C157.47 11.4363 160.35 10.023 164.095 10.023C168.053 10.023 171.038 11.507 173.052 14.475C174.748 16.9837 175.596 20.305 175.596 24.439ZM170.879 24.757C170.879 21.4357 170.544 18.9447 169.872 17.284C168.812 14.7047 166.869 13.415 164.042 13.415C161.392 13.415 159.555 14.4573 158.53 16.542C157.753 18.026 157.364 20.2343 157.364 23.167C157.364 26.5237 157.718 29.0323 158.424 30.693C159.52 33.2017 161.498 34.456 164.36 34.456C168.706 34.456 170.879 31.223 170.879 24.757ZM212.528 10.659L205.055 37.212H201.133L194.985 15.747H194.879C194.809 16.2417 194.614 17.1427 194.296 18.45L188.996 37.212H185.127L177.813 10.818L181.947 9.917L186.187 27.354C186.47 28.4847 186.788 29.951 187.141 31.753H187.3C187.442 31.117 187.742 29.845 188.201 27.937L192.971 10.447H197.37L202.034 28.149C202.352 29.3857 202.706 30.6753 203.094 32.018H203.2C203.412 30.958 203.677 29.739 203.995 28.361L208.182 10.659H212.528ZM232.682 29.103C232.682 31.8237 231.675 33.979 229.661 35.569C227.859 37.0177 225.545 37.742 222.718 37.742C219.15 37.742 215.917 36.8587 213.019 35.092L214.609 32.018C217.33 33.6787 220.121 34.509 222.983 34.509C224.538 34.509 225.81 34.1203 226.799 33.343C227.824 32.5657 228.336 31.435 228.336 29.951C228.336 27.725 226.888 26.2763 223.99 25.605L220.704 24.863C216.252 23.8737 214.026 21.471 214.026 17.655C214.026 15.1463 214.98 13.1323 216.888 11.613C218.655 10.235 220.828 9.546 223.407 9.546C226.305 9.546 228.99 10.2527 231.463 11.666L229.926 14.74C227.276 13.468 225.068 12.832 223.301 12.832C221.888 12.832 220.722 13.1853 219.803 13.892C218.814 14.7047 218.319 15.8 218.319 17.178C218.319 19.192 219.591 20.464 222.135 20.994L225.633 21.736C230.333 22.7253 232.682 25.181 232.682 29.103ZM256.866 24.492H240.383V25.128C240.383 27.7427 240.789 29.6683 241.602 30.905C243.015 33.0603 245.206 34.138 248.174 34.138C250.682 34.138 252.838 33.3077 254.64 31.647L256.23 34.297C253.827 36.4877 250.859 37.583 247.326 37.583C243.404 37.583 240.418 36.1873 238.369 33.396C236.531 30.8873 235.613 27.6013 235.613 23.538C235.613 19.828 236.514 16.701 238.316 14.157C240.365 11.295 243.156 9.864 246.69 9.864C249.622 9.864 252.007 10.8357 253.845 12.779C255.152 14.157 256.018 15.8883 256.442 17.973C256.724 19.3157 256.866 21.2943 256.866 23.909V24.492ZM252.467 21.365C252.431 18.8563 252.06 16.966 251.354 15.694C250.4 13.998 248.774 13.15 246.478 13.15C242.626 13.15 240.595 15.8883 240.383 21.365H252.467ZM274.939 10.076L273.243 14.581C272.783 14.4397 272.395 14.369 272.077 14.369C271.017 14.369 269.957 14.687 268.897 15.323C267.872 15.9237 267.112 16.6833 266.618 17.602C266.3 18.2027 266.141 19.1567 266.141 20.464V37H262.007V16.86C262.007 14.422 261.689 12.4787 261.053 11.03L265.187 9.917C265.787 11.2243 266.088 12.5317 266.088 13.839V14.21C268.172 11.2773 270.646 9.811 273.508 9.811C273.932 9.811 274.409 9.89933 274.939 10.076Z" fill="white"/>
</g>
<defs>
<clipPath id="clip0_692_273">
<rect width="276" height="38" fill="white"/>
</clipPath>
</defs>
</svg>
