<svg width="153" height="38" viewBox="0 0 153 38" fill="none" xmlns="http://www.w3.org/2000/svg">
<g clip-path="url(#clip0_692_273)">
<path d="M1.01034 29V1.895H6.58734V14.258L14.3093 1.895H21.0173L12.3593 14.453L21.9923 29H14.8163L6.58734 14.843V29H1.01034ZM25.3954 15.155L23.1724 11.411C24.4594 10.592 25.0054 10.319 26.4094 9.773C28.3594 8.954 30.0364 8.603 31.8694 8.603C35.2234 8.603 37.5244 9.851 38.3044 12.074C38.5774 12.893 38.6554 13.517 38.6554 15.662L38.5384 22.37C38.5384 22.487 38.5384 22.604 38.5384 22.721C38.5384 24.866 38.8894 25.685 40.4104 26.816L37.6414 30.014C36.4324 29.507 35.3404 28.61 34.8334 27.596C34.0924 28.298 34.0144 28.376 33.6244 28.649C32.6494 29.351 31.2454 29.741 29.6074 29.741C25.1614 29.741 22.7434 27.479 22.7434 23.501C22.7434 18.821 25.9804 16.637 32.3374 16.637C32.7274 16.637 32.9614 16.637 33.5074 16.676V15.857C33.5074 13.634 33.0784 12.893 31.1674 12.893C29.4904 12.893 27.5404 13.712 25.3954 15.155ZM33.3514 24.554L33.4294 20.264H33.1954C29.5684 20.264 28.3204 20.927 28.3204 23.306C28.3204 24.866 29.2954 25.919 30.6214 25.919C31.5964 25.919 32.5714 25.412 33.3514 24.554ZM42.9073 14.492C42.9073 11.879 42.8683 11.138 42.5953 9.461L47.2363 8.642C47.4313 9.344 47.5483 9.89 47.5873 10.514C48.4843 9.422 50.4733 8.642 52.5013 8.642C53.9053 8.642 55.3483 9.11 56.4403 9.851C58.5853 11.294 60.1453 13.868 60.1453 18.47C60.1453 22.76 59.4823 24.983 57.3763 27.167C56.0113 28.61 54.2173 29.429 52.0333 29.429C50.4733 29.429 48.9913 29.039 47.8603 28.376C47.9383 28.844 47.9383 30.014 47.9383 30.014V36.254L42.9073 37.58V14.492ZM47.9773 14.414V24.125C48.6793 24.71 49.8103 25.295 50.8633 25.295C53.4373 25.295 54.4513 23.54 54.4513 18.977C54.4513 17.066 54.2953 15.545 53.9443 14.57C53.5543 13.478 52.7353 12.893 51.4483 12.893C50.1613 12.893 48.9133 13.439 47.9773 14.414ZM63.722 14.492C63.722 11.879 63.683 11.138 63.41 9.461L68.051 8.642C68.246 9.344 68.363 9.89 68.402 10.514C69.299 9.422 71.288 8.642 73.316 8.642C74.72 8.642 76.163 9.11 77.255 9.851C79.4 11.294 80.96 13.868 80.96 18.47C80.96 22.76 80.297 24.983 78.191 27.167C76.826 28.61 75.032 29.429 72.848 29.429C71.288 29.429 69.806 29.039 68.675 28.376C68.753 28.844 68.753 30.014 68.753 30.014V36.254L63.722 37.58V14.492ZM68.792 14.414V24.125C69.494 24.71 70.625 25.295 71.678 25.295C74.252 25.295 75.266 23.54 75.266 18.977C75.266 17.066 75.11 15.545 74.759 14.57C74.369 13.478 73.55 12.893 72.263 12.893C70.976 12.893 69.728 13.439 68.792 14.414ZM85.7068 15.155L83.4838 11.411C84.7708 10.592 85.3168 10.319 86.7208 9.773C88.6708 8.954 90.3478 8.603 92.1808 8.603C95.5348 8.603 97.8358 9.851 98.6158 12.074C98.8888 12.893 98.9668 13.517 98.9668 15.662L98.8498 22.37C98.8498 22.487 98.8498 22.604 98.8498 22.721C98.8498 24.866 99.2008 25.685 100.722 26.816L97.9528 30.014C96.7438 29.507 95.6518 28.61 95.1448 27.596C94.4038 28.298 94.3258 28.376 93.9358 28.649C92.9608 29.351 91.5568 29.741 89.9188 29.741C85.4728 29.741 83.0548 27.479 83.0548 23.501C83.0548 18.821 86.2918 16.637 92.6488 16.637C93.0388 16.637 93.2728 16.637 93.8188 16.676V15.857C93.8188 13.634 93.3898 12.893 91.4788 12.893C89.8018 12.893 87.8518 13.712 85.7068 15.155ZM93.6628 24.554L93.7408 20.264H93.5068C89.8798 20.264 88.6318 20.927 88.6318 23.306C88.6318 24.866 89.6068 25.919 90.9328 25.919C91.9078 25.919 92.8828 25.412 93.6628 24.554ZM114.256 1.349L112.579 4.586C111.448 4.04 111.058 3.923 110.434 3.923C109.108 3.923 108.25 4.742 108.25 6.185V8.993H113.32L111.994 12.659H108.289V29H103.18V12.659H101.386V8.993H103.297C103.18 8.174 103.102 7.199 103.102 6.302C103.102 2.363 105.442 0.100998 109.537 0.100998C111.253 0.100998 112.657 0.451998 114.256 1.349ZM111.922 19.094C111.922 12.815 115.51 8.642 120.892 8.642C123.739 8.642 125.962 9.617 127.678 11.645C129.277 13.517 129.979 15.701 129.979 18.938C129.979 22.37 129.199 24.71 127.483 26.66C125.962 28.376 123.973 29.429 120.892 29.429C115.471 29.429 111.922 25.373 111.922 19.094ZM123.232 13.556C122.725 12.893 121.906 12.503 120.97 12.503C119.722 12.503 118.708 13.283 118.279 14.531C117.928 15.584 117.733 16.988 117.733 18.977C117.733 21.278 117.967 22.994 118.396 24.008C118.864 25.1 120.034 25.646 121.048 25.646C123.31 25.646 124.285 23.618 124.285 18.899C124.285 16.208 123.934 14.453 123.232 13.556ZM136.442 18.392L130.904 10.007L136.325 8.486C137.807 10.943 138.275 11.801 139.016 13.361C139.328 13.985 139.406 14.18 139.64 14.687C139.64 14.687 139.757 14.492 139.757 14.414C140.342 13.01 140.732 12.152 141.395 10.787C141.707 10.124 142.331 9.071 142.331 9.071H148.493L142.565 18.275L149.741 29H143.111L141.005 25.334C140.459 24.32 140.147 23.618 139.562 22.604C139.562 22.565 139.445 22.409 139.445 22.409C139.445 22.409 139.328 22.643 139.289 22.76C138.704 24.125 137.924 25.412 137.456 26.231L135.779 29H129.071L136.442 18.392Z" fill="context-fill #20123a"/>
</g>
<defs>
<clipPath id="clip0_692_273">
<rect width="152" height="38" fill="white" transform="translate(0.319336)"/>
</clipPath>
</defs>
</svg>
